<svg width="136" height="68" viewBox="0 0 136 68" fill="none" xmlns="http://www.w3.org/2000/svg">
<path d="M70.0009 45.056H59.7289V46.976H64.1449V48.416H60.8809V48.896H66.5449V49.856H60.4009V50.816H65.5849V51.776H65.6809V52.544C65.6809 52.928 65.5849 53.312 65.3929 53.696H63.6649C63.2809 54.528 62.5769 54.944 61.5529 54.944H53.4889L53.3929 55.616H52.2409L52.0489 57.056H50.6089L50.5129 58.016H54.5449L54.3529 59.456H49.7449L49.6489 59.936H48.7849L48.4969 61.856H46.8649V62.24C46.8649 62.24 46.8649 62.272 46.8649 62.336C46.8649 62.336 46.8329 62.336 46.7689 62.336H57.5209C57.4569 62.848 57.2009 63.296 56.7529 63.68C56.3049 64.064 55.7609 64.256 55.1209 64.256H43.9849C43.4729 64.256 42.9929 64.064 42.5449 63.68C42.1609 63.296 41.9369 62.848 41.8729 62.336H28.2409C28.1129 62.848 27.8249 63.296 27.3769 63.68C26.9289 64.064 26.4169 64.256 25.8409 64.256H14.7049C14.1289 64.256 13.6169 64.064 13.1689 63.68C12.7209 63.296 12.5289 62.848 12.5929 62.336H19.1209V61.856H8.36888L8.65688 59.936H8.56088V59.456H13.1689L13.3609 58.016H14.8009L14.9929 57.056H15.8569L16.1449 55.616H15.9529L16.0489 54.944H11.5369C10.5769 54.944 9.87288 54.528 9.42488 53.696H11.1529C10.9609 53.312 10.8649 52.928 10.8649 52.544V51.776H10.7689V50.816H5.58488V49.856H11.7289V48.896H6.06488V48.416H9.32888V46.976H4.91287V45.056H15.1849V43.616H8.56088V41.696H14.4169V41.216C14.4169 40.576 14.5769 40.096 14.8969 39.776H0.976875C1.48887 39.136 2.12887 38.816 2.89687 38.816H9.80888L10.0009 37.856H17.9689L18.0649 37.376H17.2969L17.4889 35.936H15.8569L15.9529 34.976H11.3449L11.5369 33.536H16.8169L17.0089 32.576H18.2569L18.4489 31.616H24.1129L24.2089 30.56H18.5449C18.0329 30.56 17.6169 30.432 17.2969 30.176H14.1289C13.6169 29.856 13.2969 29.376 13.1689 28.736H13.2649C13.2009 28.608 13.1689 28.416 13.1689 28.16V26.816H12.6889V26.336H10.4809V24.896H10.7689V23.456H11.7289V22.976H11.6329V22.496H13.2649V20.576H10.6729V19.136H12.7849V18.656H12.4969V16.736H14.9929C14.9929 16.608 14.9929 16.512 14.9929 16.448C15.0569 16.384 15.0889 16.32 15.0889 16.256C15.2809 15.04 16.0489 14.432 17.3929 14.432H25.4569V14.336H22.6729L22.7689 13.856H21.4249L21.7129 11.936H22.5769L22.8649 10.496H22.7689L22.8649 9.536H21.1369L21.4249 7.616H19.5049L19.6009 7.136C19.7289 6.752 19.8569 6.432 19.9849 6.17599H23.0569C23.5049 5.472 24.1449 5.12 24.9769 5.12H36.1129C36.9449 5.12 37.5529 5.472 37.9369 6.17599H34.8649C35.0569 6.432 35.1529 6.784 35.1529 7.232V7.616H37.0729L36.7849 9.536H38.5129L38.3209 10.496H38.4169L38.2249 11.936H37.3609L37.0729 13.856H38.4169L38.3209 14.336H41.1049V14.432H47.2489V14.336H43.4089L43.5049 13.856H43.9849L44.2729 11.936H43.8889L44.0809 10.496H43.9849L44.1769 9.536H47.1529L47.4409 7.616H46.0969L46.1929 7.136C46.3209 6.752 46.4489 6.432 46.5769 6.17599H45.4249C45.8729 5.472 46.5129 5.12 47.3449 5.12H58.4809C59.3129 5.12 59.9209 5.472 60.3049 6.17599H61.4569C61.6489 6.432 61.7449 6.784 61.7449 7.232V7.616H62.9929L62.8009 9.536H59.7289L59.6329 10.496L59.4409 11.936H59.9209L59.6329 13.856H59.1529L59.0569 14.336H62.8969V14.432H67.4089C68.7529 14.432 69.5209 15.04 69.7129 16.256H69.8089V16.736H67.3129V18.656H67.6009V19.136H65.4889V20.576H68.0809V22.496H66.4489V22.976H66.5449V23.456H65.5849V24.896H65.2969V26.336H67.5049V26.816H67.9849V28.16C67.9849 28.416 67.9529 28.608 67.8889 28.736H67.7929C67.6649 29.376 67.3449 29.856 66.8329 30.176H69.9049C69.5849 30.432 69.1369 30.56 68.5609 30.56H61.6489L61.5529 31.616H63.1849L62.9929 32.576H56.8489L56.6569 33.536H59.0569L58.8649 34.976H53.2969L53.2009 35.936H56.0809L55.7929 37.376H56.0809V37.856H47.4409L47.2489 38.816H52.9129C53.7449 38.816 54.3849 39.136 54.8329 39.776H68.7529C69.0729 40.224 69.2329 40.704 69.2329 41.216V41.696H63.3769V43.616H70.0009V45.056ZM31.5049 35.936H33.1369L32.9449 37.376H33.7129L33.6169 37.856H40.4329V37.376H40.1449L40.4329 35.936H37.5529L37.6489 34.976H43.2169L43.4089 33.536H41.0089L41.2009 32.576H47.3449L47.5369 31.616H45.9049L46.0009 30.56H39.8569L39.7609 31.616H34.0969L33.9049 32.576H32.6569L32.4649 33.536H27.1849L26.9929 34.976H31.6009L31.5049 35.936ZM31.7929 37.856H25.6489L25.4569 38.816H31.6009L31.7929 37.856ZM36.5929 55.616H37.7449L37.8409 54.944H31.6969L31.6009 55.616H31.7929L31.6009 57.056H30.6409L30.4489 58.016H29.0089L28.8169 59.456H24.3049L24.2089 59.936H24.3049L24.0169 61.856H32.7529L33.0409 59.936H34.0009L34.0969 59.456H38.7049L38.8969 58.016H34.7689L34.9609 57.056H36.4009L36.5929 55.616ZM135.066 22.016H125.082V22.976H125.946V23.936H122.298V25.856H117.402V26.816H119.898V27.776H120.09V28.736H117.978V30.656H117.882V32.096H119.418V34.016H115.674V35.456H118.266V36.896H119.706V38.816H112.218V39.776H108.666V41.696H121.05V42.176H112.41V44.096H122.202V45.056H110.97V46.496H118.746V48.416H118.65V50.336H119.514V51.296H120.954V52.736H122.298V54.176H121.146V55.616H118.458V57.056H118.362V58.976H118.266V59.456H117.498V61.376H117.882V61.856H118.65V62.336H119.898V64.256H121.338V65.408C121.338 65.728 121.306 65.984 121.242 66.176H121.434C121.306 66.752 120.954 67.232 120.378 67.616H117.786C117.466 67.872 117.018 68 116.442 68H97.6256C97.0496 68 96.6016 67.872 96.2816 67.616H98.7776C98.3296 67.296 97.9776 66.816 97.7216 66.176H97.4336C97.4336 66.048 97.4016 65.92 97.3376 65.792C97.3376 65.664 97.3376 65.536 97.3376 65.408V64.256H95.8976V62.336H94.6496V61.856H93.8816V61.376H93.4976V59.456H94.2656V58.976H94.3616V57.056H94.4576V55.616H97.1456V54.176H98.2976V52.736H96.9536V51.296H95.5136V50.336H94.6496V48.416H94.7456V46.496H86.9696V45.056H98.2016V44.096H88.4096V42.176H97.0496V41.696H84.6656V39.776H88.2176V38.816H95.7056V36.896H94.2656V35.456H91.6736V34.016H95.4176V32.096H93.8816V30.656H93.9776V28.736H96.0896V27.776H95.8976V27.488L95.5136 27.776H94.5536L93.3056 28.736H91.3856L88.8896 30.656H89.0816L87.2576 32.096H86.3936L83.8976 34.016H86.0096L84.8576 34.88C84.2176 35.328 83.5776 35.488 82.9376 35.36C82.2976 35.168 81.7216 34.752 81.2096 34.112L81.1136 34.016H79.0976L77.5616 32.096H78.4256L77.2736 30.656H77.0816L75.5456 28.736H77.4656L76.6976 27.776H77.6576L76.8896 26.816H73.3376L72.5696 25.856H77.5616L76.1216 23.936H79.6736L79.0976 23.168C79.0976 23.104 79.0656 23.072 79.0016 23.072C79.0016 23.072 79.0016 23.04 79.0016 22.976H78.1376C78.0096 22.592 77.9456 22.272 77.9456 22.016H87.9296C87.8656 21.568 87.9296 21.088 88.1216 20.576H86.7776C86.9696 20.192 87.2256 19.872 87.5456 19.616H67.9616L68.2496 19.424L70.4576 17.696H74.6816L76.5056 16.256L77.7536 15.296H81.4976L83.4176 13.856H81.2096L81.7856 13.376H79.8656L81.7856 11.936H82.0736L83.8976 10.496H84.1856L85.4336 9.536H85.5296L86.1056 9.056H86.4896L88.8896 7.136H82.5536L84.9536 5.216H94.4576L95.0336 4.736H70.3616L71.0336 4.256H94.9376L96.1856 3.296L98.4896 1.472L98.5856 1.376H105.786C106.362 0.991997 107.002 0.799995 107.706 0.799995H125.85C126.554 0.799995 127.098 0.991997 127.482 1.376H120.378C121.018 1.888 121.338 2.56 121.338 3.392V4.256H97.4336V4.736H122.106V5.216H112.698V7.136H119.034V9.056H118.746V9.536H118.65V10.496H118.362V11.936H118.074V13.376H119.994V13.856H122.202V15.296H118.362V16.256H118.458V17.696H114.234V19.616H133.722V20.576H135.066V22.016Z" fill="#C7FF28"/>
</svg>
