<svg width="50" height="50" viewBox="0 0 50 50" fill="none" xmlns="http://www.w3.org/2000/svg">
<circle cx="25" cy="25" r="25" fill="#1A1A31"/>
<path d="M35.5562 20.6127C36.5729 19.9019 37.4281 19.0147 38.125 17.9932V17.9922C37.1948 18.3932 36.2052 18.6599 35.1719 18.7891C36.2344 18.1645 37.0458 17.1829 37.4271 16.0004C36.4365 16.5819 35.3427 16.9922 34.1771 17.2219C33.2365 16.2353 31.8958 15.625 30.4333 15.625C27.5958 15.625 25.3115 17.8927 25.3115 20.6722C25.3115 21.0722 25.3458 21.4568 25.4302 21.8229C21.1698 21.6178 17.399 19.6076 14.8656 16.544C14.424 17.2999 14.1635 18.1645 14.1635 19.0947C14.1635 20.8424 15.0771 22.3912 16.4406 23.2886C15.6167 23.2732 14.8094 23.0373 14.125 22.6671V22.7224C14.125 25.1747 15.901 27.2117 18.2312 27.6814C17.8135 27.7942 17.3594 27.8476 16.8875 27.8476C16.5594 27.8476 16.2281 27.8291 15.9177 27.7614C16.5812 29.7594 18.4667 31.2291 20.7062 31.2773C18.9625 32.6199 16.7479 33.4291 14.351 33.4291C13.9313 33.4291 13.5281 33.4106 13.125 33.3604C15.3958 34.8014 18.0854 35.625 20.9875 35.625C30.0323 35.625 35.9271 28.1953 35.5562 20.6127Z" fill="white"/>
</svg>
