<svg width="162" height="40" viewBox="0 0 162 40" fill="none" xmlns="http://www.w3.org/2000/svg">
<path d="M153.482 31.8609C147.991 31.8609 144.664 28.2716 144.664 22.4861V22.4697C144.664 16.7333 148.024 13.0457 153.285 13.0457C158.546 13.0457 161.824 16.6514 161.824 22.1091V23.6005H149.401C149.45 26.5671 151.039 28.288 153.58 28.288C155.678 28.288 156.841 27.1735 157.169 26.4851L157.218 26.3868H161.676L161.644 26.5507C161.086 28.8124 158.759 31.8609 153.482 31.8609ZM153.367 16.635C151.285 16.635 149.745 18.0445 149.45 20.6013H157.235C156.94 17.9789 155.448 16.635 153.367 16.635Z" fill="white"/>
<path d="M126.1 31.4839V13.439H130.886V16.2252H131.181C132 14.2749 133.787 13.0457 136.36 13.0457C140.375 13.0457 142.539 15.5041 142.539 19.8146V31.4839H137.753V20.8963C137.753 18.3559 136.704 17.0119 134.442 17.0119C132.23 17.0119 130.886 18.6017 130.886 21.0438V31.4839H126.1Z" fill="white"/>
<path d="M112.847 31.7626C109.405 31.7626 106.963 29.6319 106.963 26.354V26.3212C106.963 23.0761 109.47 21.1749 113.961 20.9127L118.321 20.6504V19.159C118.321 17.602 117.256 16.7169 115.289 16.7169C113.568 16.7169 112.47 17.3233 112.093 18.3887L112.06 18.4542H107.635L107.651 18.3067C108.028 15.1435 111.011 13.0457 115.551 13.0457C120.337 13.0457 123.041 15.3074 123.041 19.159V31.4839H118.321V29.0911H118.026C117.108 30.7628 115.207 31.7626 112.847 31.7626ZM111.634 26.059C111.634 27.4357 112.798 28.2716 114.453 28.2716C116.666 28.2716 118.321 26.8129 118.321 24.9117V23.5842L114.682 23.8136C112.634 23.9447 111.634 24.715 111.634 26.0262V26.059Z" fill="white"/>
<path d="M99.8226 31.4839V6.53894H104.608V31.4839H99.8226Z" fill="white"/>
<path d="M79.1445 31.484V7.83386H88.8963C93.8788 7.83386 97.2059 11.0462 97.2059 15.9139V15.9467C97.2059 20.8144 93.8788 24.0268 88.8963 24.0268H84.0942V31.484H79.1445ZM87.6835 11.751H84.0942V20.1588H87.6835C90.5189 20.1588 92.1906 18.651 92.1906 15.9631V15.9303C92.1906 13.2424 90.5189 11.751 87.6835 11.751Z" fill="white"/>
<path d="M64.1517 24.0922V19.7817H75.0508V24.0922H64.1517Z" fill="white"/>
<path d="M54.4404 31.484V11.9149H47.3438V7.83386H66.4868V11.9149H59.3901V31.484H54.4404Z" fill="white"/>
<g clip-path="url(#clip0_510_468)">
<rect width="40" height="40" fill="url(#paint0_linear_510_468)"/>
<rect x="8.87048" y="28.4849" width="22.2589" height="11.5151" fill="url(#paint1_linear_510_468)"/>
<rect x="17.4105" y="28.4849" width="5.17906" height="11.5151" fill="url(#paint2_linear_510_468)"/>
<path d="M20 6.13123L31.1333 28.4979H20L20 6.13123Z" fill="url(#paint3_linear_510_468)"/>
<path d="M19.9999 6.13123V28.4979H8.86658L19.9999 6.13123Z" fill="white"/>
<path d="M17.4332 28.463L19.9827 6.23145L19.9999 31.6314L17.4332 28.463Z" fill="url(#paint4_linear_510_468)"/>
<path d="M22.5667 28.4588L20.0172 6.19812L20 31.6314L22.5667 28.4588Z" fill="white"/>
</g>
<defs>
<linearGradient id="paint0_linear_510_468" x1="20" y1="-1.71667" x2="20" y2="53.1666" gradientUnits="userSpaceOnUse">
<stop stop-color="#C735C1"/>
<stop offset="1" stop-color="#3DA2FB"/>
</linearGradient>
<linearGradient id="paint1_linear_510_468" x1="19.5501" y1="13.7772" x2="19.5501" y2="45.1302" gradientUnits="userSpaceOnUse">
<stop offset="0.080122" stop-color="#C735C1"/>
<stop offset="1" stop-color="#005AC4" stop-opacity="0"/>
</linearGradient>
<linearGradient id="paint2_linear_510_468" x1="20.37" y1="19.0181" x2="21.1997" y2="42.0383" gradientUnits="userSpaceOnUse">
<stop offset="0.080122" stop-color="#C735C1"/>
<stop offset="1" stop-color="#005AC4" stop-opacity="0"/>
</linearGradient>
<linearGradient id="paint3_linear_510_468" x1="20" y1="6.56621" x2="26.64" y2="28.7718" gradientUnits="userSpaceOnUse">
<stop offset="0.2" stop-color="#D9D3BD"/>
<stop offset="1" stop-color="#CAC4AA"/>
</linearGradient>
<linearGradient id="paint4_linear_510_468" x1="19.0008" y1="21.9519" x2="21.9944" y2="21.531" gradientUnits="userSpaceOnUse">
<stop stop-color="#E9E3D1"/>
<stop offset="1" stop-color="#BFBA9D"/>
</linearGradient>
<clipPath id="clip0_510_468">
<rect width="40" height="40" rx="20" fill="white"/>
</clipPath>
</defs>
</svg>
