<svg width="1439" height="726" viewBox="0 0 1439 726" fill="none" xmlns="http://www.w3.org/2000/svg">
<path d="M1123.65 495.581L1116.56 511.808L877.966 482.534L1123.65 495.581Z" fill="#D9D9D9"/>
<path opacity="0.6" d="M1267 512.259L1123 495.759L1073 448.259L1217 422.759L1267 512.259Z" fill="url(#paint0_linear_552_2892)"/>
<path d="M1123.38 495.565L1076.2 447.688L877.685 482.515L1123.38 495.565Z" fill="white"/>
<path d="M1133.22 561.437L1122.64 577.028L877.966 482.534L1133.22 561.437Z" fill="#D9D9D9"/>
<path d="M1106.83 494.278L1066.43 449.474L1065.12 449.702C1065.15 449.775 1065.18 449.852 1065.25 449.918L1105.56 494.628L1106.99 494.701C1106.99 494.552 1106.95 494.399 1106.84 494.272L1106.83 494.278Z" fill="#2DA6A5"/>
<path d="M1051.72 452.045L1050.35 452.293L1087.66 493.671L1089.34 493.759L1051.72 452.045Z" fill="#2DA6A5"/>
<path d="M1037.02 454.632L1035.64 454.867L1069.78 492.719L1071.45 492.806L1037.02 454.632Z" fill="#2DA6A5"/>
<path d="M1022.32 457.207L1020.94 457.452L1051.89 491.766L1053.56 491.863L1022.32 457.207Z" fill="#2DA6A5"/>
<path d="M1007.6 459.787L1006.23 460.026L1033.96 490.818L1035.62 490.902L1007.6 459.787Z" fill="#2DA6A5"/>
<path d="M992.914 462.369L991.545 462.608L1016.16 489.874L1017.82 489.959L992.914 462.369Z" fill="#2DA6A5"/>
<path d="M978.187 464.946L976.815 465.194L998.166 488.915L999.84 489.003L978.187 464.946Z" fill="#2DA6A5"/>
<path d="M963.422 467.541L962.053 467.779L980.131 487.96L981.796 488.045L963.422 467.541Z" fill="#2DA6A5"/>
<path d="M948.816 470.109L947.438 470.344L962.494 487.025L964.168 487.113L948.816 470.109Z" fill="#2DA6A5"/>
<path d="M934.124 472.678L932.742 472.922L944.63 486.07L946.304 486.158L934.124 472.678Z" fill="#2DA6A5"/>
<path d="M919.438 475.259L918.06 475.495L926.772 485.128L928.447 485.216L919.438 475.259Z" fill="#2DA6A5"/>
<path d="M908.836 484.167L910.507 484.265L904.711 477.836L903.33 478.081L908.836 484.167Z" fill="#2DA6A5"/>
<path opacity="0.6" d="M1380.5 642.26L1198 581.259L1124 512.259L1300.5 532.26L1380.5 642.26Z" fill="url(#paint1_linear_552_2892)"/>
<path d="M877.966 482.534L1143.73 515.174L1216.48 587.236L877.966 482.534Z" fill="white"/>
<path d="M917.319 494.707L919.423 495.36L912.092 486.719L910.355 486.512L917.319 494.707Z" fill="#2DA6A5"/>
<path d="M930.015 488.923L928.269 488.713L939.309 501.503L941.432 502.163L930.015 488.923Z" fill="#2DA6A5"/>
<path d="M948.836 491.236L947.09 491.026L962.347 508.634L964.492 509.292L948.836 491.236Z" fill="#2DA6A5"/>
<path d="M970.402 493.885L968.646 493.671L988.726 516.792L990.859 517.456L970.402 493.885Z" fill="#2DA6A5"/>
<path d="M988.489 496.107L986.743 495.897L1010.63 523.566L1012.76 524.229L988.489 496.107Z" fill="#2DA6A5"/>
<path d="M1007.71 498.472L1005.96 498.252L1033.98 530.793L1036.12 531.447L1007.71 498.472Z" fill="#2DA6A5"/>
<path d="M1026.95 500.834L1025.19 500.619L1057.55 538.079L1059.68 538.742L1026.95 500.834Z" fill="#2DA6A5"/>
<path d="M1046.17 503.189L1044.42 502.978L1081.07 545.356L1083.2 546.019L1046.17 503.189Z" fill="#2DA6A5"/>
<path d="M1065.43 505.558L1063.67 505.343L1105.11 552.796L1107.27 553.457L1065.43 505.558Z" fill="#2DA6A5"/>
<path d="M1084.66 507.916L1082.9 507.702L1128.66 560.075L1130.81 560.745L1084.66 507.916Z" fill="#2DA6A5"/>
<path d="M1103.85 510.283L1102.1 510.059L1151.56 567.154L1153.69 567.817L1103.85 510.283Z" fill="#2DA6A5"/>
<path d="M1123.09 512.645L1121.34 512.422L1175.45 574.548L1177.59 575.215L1123.09 512.645Z" fill="#2DA6A5"/>
<path d="M1046.12 534.54L1056.43 537.737L1193.07 564.054L1191.56 562.554L1046.12 534.54Z" fill="#E05F5F"/>
<path d="M115.835 406.187L121.557 422.941L348.156 416.515L115.835 406.187Z" fill="#D9D9D9"/>
<path d="M116.092 406.197L163.387 363.211L348.422 416.523L116.092 406.197Z" fill="white"/>
<path d="M102.919 470.552L111.975 487.007L348.156 416.514L102.919 470.552Z" fill="#D9D9D9"/>
<path d="M131.762 406.487L172.481 365.904L173.703 366.255C173.675 366.325 173.637 366.398 173.575 366.457L132.939 406.954L131.584 406.891C131.591 406.744 131.637 406.596 131.75 406.48L131.762 406.487Z" fill="#2DA6A5"/>
<path d="M186.197 369.846L187.475 370.221L149.862 407.701L148.279 407.629L186.197 369.846Z" fill="#2DA6A5"/>
<path d="M199.897 373.802L201.182 374.165L166.775 408.45L165.193 408.378L199.897 373.802Z" fill="#2DA6A5"/>
<path d="M213.604 377.746L214.891 378.119L183.689 409.199L182.109 409.137L213.604 377.746Z" fill="#2DA6A5"/>
<path d="M227.322 381.697L228.598 382.063L200.644 409.957L199.071 409.883L227.322 381.697Z" fill="#2DA6A5"/>
<path d="M241.011 385.646L242.286 386.012L217.48 410.707L215.906 410.633L241.011 385.646Z" fill="#2DA6A5"/>
<path d="M254.738 389.594L256.017 389.97L234.492 411.459L232.909 411.388L254.738 389.594Z" fill="#2DA6A5"/>
<path d="M268.501 393.564L269.777 393.93L251.546 412.22L249.972 412.147L268.501 393.564Z" fill="#2DA6A5"/>
<path d="M282.115 397.492L283.4 397.856L268.224 412.964L266.641 412.892L282.115 397.492Z" fill="#2DA6A5"/>
<path d="M295.81 401.429L297.098 401.802L285.116 413.708L283.533 413.637L295.81 401.429Z" fill="#2DA6A5"/>
<path d="M309.499 405.378L310.784 405.742L302.003 414.465L300.42 414.393L309.499 405.378Z" fill="#2DA6A5"/>
<path d="M318.964 415.211L317.384 415.149L323.226 409.326L324.514 409.7L318.964 415.211Z" fill="#2DA6A5"/>
<path d="M348.156 416.515L95.7447 423.705L22.9284 488.242L348.156 416.515Z" fill="white"/>
<path d="M310.347 424.854L308.325 425.302L315.745 417.432L317.394 417.391L310.347 424.854Z" fill="#2DA6A5"/>
<path d="M298.723 417.919L300.381 417.876L289.22 429.508L287.18 429.961L298.723 417.919Z" fill="#2DA6A5"/>
<path d="M280.848 418.43L282.506 418.387L267.086 434.395L265.025 434.843L280.848 418.43Z" fill="#2DA6A5"/>
<path d="M260.366 419.014L262.033 418.968L241.742 439.983L239.693 440.439L260.366 419.014Z" fill="#2DA6A5"/>
<path d="M243.188 419.504L244.846 419.461L220.699 444.623L218.65 445.079L243.188 419.504Z" fill="#2DA6A5"/>
<path d="M224.936 420.028L226.591 419.975L198.261 449.576L196.209 450.022L224.936 420.028Z" fill="#2DA6A5"/>
<path d="M206.662 420.548L208.329 420.502L175.618 454.565L173.569 455.021L206.662 420.548Z" fill="#2DA6A5"/>
<path d="M188.407 421.062L190.065 421.019L153.024 459.552L150.975 460.007L188.407 421.062Z" fill="#2DA6A5"/>
<path d="M170.116 421.587L171.783 421.541L129.924 464.65L127.854 465.101L170.116 421.587Z" fill="#2DA6A5"/>
<path d="M151.852 422.104L153.519 422.058L107.299 469.634L105.232 470.095L151.852 422.104Z" fill="#2DA6A5"/>
<path d="M133.62 422.632L135.284 422.577L85.3001 474.483L83.2511 474.939L133.62 422.632Z" fill="#2DA6A5"/>
<path d="M115.347 423.152L117.011 423.096L62.3474 479.55L60.2894 480.008L115.347 423.152Z" fill="#2DA6A5"/>
<path d="M186.603 452.14L176.695 454.333L46.3585 467.481L47.8727 466.137L186.603 452.14Z" fill="#E05F5F"/>
<path d="M195.48 16.0107L195.175 22.3236L276.492 50.7169L195.48 16.0107Z" fill="#D9D9D9"/>
<path d="M195.571 16.0502L225.663 3.4841L276.584 50.7501L195.571 16.0502Z" fill="white"/>
<path d="M181.926 35.5635L184.758 45.3547L276.492 50.7105L181.926 35.5635Z" fill="#D9D9D9"/>
<path d="M276.492 50.7106L185.908 19.1007L151.653 36.5015L276.492 50.7106Z" fill="white"/>
<path d="M1152.09 22.7078L1152.27 27.6261L1089.07 49.1132L1152.09 22.7078Z" fill="#D9D9D9"/>
<path d="M1152.01 22.7391L1132.48 12L1089 49.14L1152.01 22.7391Z" fill="white"/>
<path d="M1162.43 38.0212L1160.16 45.6154L1089.07 49.1087L1162.43 38.0212Z" fill="#D9D9D9"/>
<path d="M1089.07 49.1087L1159.47 25.1826L1185.87 38.9727L1089.07 49.1087Z" fill="white"/>
<defs>
<linearGradient id="paint0_linear_552_2892" x1="1194" y1="613.759" x2="1266.5" y2="556.759" gradientUnits="userSpaceOnUse">
<stop stop-color="#6D75ED"/>
<stop offset="1" stop-color="#313572" stop-opacity="0"/>
</linearGradient>
<linearGradient id="paint1_linear_552_2892" x1="1229" y1="626.76" x2="1301.5" y2="569.76" gradientUnits="userSpaceOnUse">
<stop stop-color="#7F87FC"/>
<stop offset="1" stop-color="#313572" stop-opacity="0"/>
</linearGradient>
</defs>
</svg>
