<svg width="49" height="48" viewBox="0 0 49 48" fill="none" xmlns="http://www.w3.org/2000/svg">
<path d="M24.5 47.9844C21.2344 47.9844 18.1562 47.3594 15.2656 46.1094C12.3906 44.8594 9.85156 43.1328 7.64844 40.9297C5.44531 38.7266 3.71875 36.1875 2.46875 33.3125C1.21875 30.4219 0.59375 27.3438 0.59375 24.0781C0.59375 21.1562 1.10938 18.3828 2.14062 15.7578C3.17188 13.1172 4.57812 10.75 6.35938 8.65625C6.78125 8.14062 7.27344 7.86719 7.83594 7.83594C8.41406 7.78906 8.89844 7.96875 9.28906 8.375C9.67969 8.78125 9.86719 9.24219 9.85156 9.75781C9.83594 10.2734 9.65625 10.7578 9.3125 11.2109C7.82812 12.9297 6.67188 14.8906 5.84375 17.0938C5.01562 19.2812 4.59375 21.6094 4.57812 24.0781C4.57812 26.8438 5.08594 29.4297 6.10156 31.8359C7.13281 34.2422 8.55469 36.3594 10.3672 38.1875C12.1953 40 14.3125 41.4219 16.7188 42.4531C19.1406 43.4844 21.7344 44 24.5 44C27.2656 44 29.8516 43.4844 32.2578 42.4531C34.6641 41.4219 36.7734 40 38.5859 38.1875C40.4141 36.3594 41.8359 34.2422 42.8516 31.8359C43.8828 29.4297 44.3984 26.8438 44.3984 24.0781C44.3984 21.3125 43.8828 18.7266 42.8516 16.3203C41.8359 13.8984 40.4141 11.7812 38.5859 9.96875C36.7734 8.14062 34.6641 6.71875 32.2578 5.70312C29.8516 4.67188 27.2578 4.15625 24.4766 4.15625L26.1172 2.09375V11.2109C26.1172 11.7266 25.9531 12.1641 25.625 12.5234C25.3125 12.8672 24.8984 13.0391 24.3828 13.0391C23.8828 13.0391 23.4688 12.8672 23.1406 12.5234C22.8281 12.1641 22.6719 11.7266 22.6719 11.2109V2.14062C22.6719 1.53125 22.8203 1.05469 23.1172 0.710938C23.4297 0.351563 23.8984 0.171875 24.5234 0.171875C27.7891 0.171875 30.8594 0.796875 33.7344 2.04688C36.625 3.29687 39.1641 5.02344 41.3516 7.22656C43.5547 9.42969 45.2812 11.9766 46.5312 14.8672C47.7812 17.7422 48.4062 20.8125 48.4062 24.0781C48.4062 27.3438 47.7812 30.4219 46.5312 33.3125C45.2812 36.1875 43.5547 38.7266 41.3516 40.9297C39.1484 43.1328 36.6016 44.8594 33.7109 46.1094C30.8359 47.3594 27.7656 47.9844 24.5 47.9844ZM24.5 27.8516C23.7969 27.8516 23.1641 27.6797 22.6016 27.3359C22.0391 26.9766 21.5703 26.5078 21.1953 25.9297L13.3906 14.2578C13.125 13.8516 13.0469 13.4844 13.1562 13.1562C13.2812 12.8125 13.5156 12.5781 13.8594 12.4531C14.2031 12.3281 14.5625 12.4062 14.9375 12.6875L26.6797 20.9844C27.1641 21.3281 27.5547 21.7734 27.8516 22.3203C28.1484 22.8516 28.2969 23.4375 28.2969 24.0781C28.2969 25.125 27.9219 26.0156 27.1719 26.75C26.4375 27.4844 25.5469 27.8516 24.5 27.8516Z" fill="white"/>
</svg>
