<svg width="65" height="52" viewBox="0 0 65 52" fill="none" xmlns="http://www.w3.org/2000/svg">
<path d="M6.32031 23.8047C6.32031 22.8828 6.50781 22.0938 6.88281 21.4375C7.25781 20.7656 7.78906 20.2578 8.47656 19.9141C9.16406 19.5703 9.98438 19.3984 10.9375 19.3984H12.0859V44.7344C12.0859 45.2969 11.9609 45.7891 11.7109 46.2109C11.4609 46.6328 11.1172 46.9531 10.6797 47.1719C10.2422 47.4062 9.75 47.5312 9.20312 47.5469C8.65625 47.5469 8.16406 47.4297 7.72656 47.1953C7.28906 46.9609 6.94531 46.6328 6.69531 46.2109C6.44531 45.7891 6.32031 45.2969 6.32031 44.7344V23.8047ZM14.2422 51.2031C15.1641 50.7031 15.7969 50.0703 16.1406 49.3047C16.4844 48.5547 16.6562 47.5469 16.6562 46.2812V8.21875C16.6562 5.79688 17.2656 3.98437 18.4844 2.78125C19.7188 1.5625 21.5625 0.953125 24.0156 0.953125H51.3203C53.7734 0.953125 55.6094 1.5625 56.8281 2.78125C58.0625 3.98437 58.6797 5.79688 58.6797 8.21875V43.9609C58.6797 46.3672 58.0625 48.1719 56.8281 49.375C55.6094 50.5938 53.7734 51.2031 51.3203 51.2031H14.2422ZM26.0547 14.9219H49.3281C49.7344 14.9219 50.0781 14.7812 50.3594 14.5C50.6406 14.2031 50.7812 13.8516 50.7812 13.4453C50.7812 13.0547 50.6406 12.7266 50.3594 12.4609C50.0781 12.1797 49.7344 12.0391 49.3281 12.0391H26.0547C25.6328 12.0391 25.2812 12.1797 25 12.4609C24.7188 12.7266 24.5781 13.0547 24.5781 13.4453C24.5781 13.8516 24.7188 14.2031 25 14.5C25.2812 14.7812 25.6328 14.9219 26.0547 14.9219ZM26.0547 23.1719H49.3281C49.7344 23.1719 50.0781 23.0391 50.3594 22.7734C50.6406 22.4922 50.7812 22.1484 50.7812 21.7422C50.7812 21.3359 50.6406 20.9922 50.3594 20.7109C50.0781 20.4297 49.7344 20.2891 49.3281 20.2891H26.0547C25.6328 20.2891 25.2812 20.4297 25 20.7109C24.7188 20.9922 24.5781 21.3359 24.5781 21.7422C24.5781 22.1484 24.7188 22.4922 25 22.7734C25.2812 23.0391 25.6328 23.1719 26.0547 23.1719ZM40.5859 31.4453H49.3281C49.7344 31.4453 50.0703 31.3125 50.3359 31.0469C50.6172 30.7656 50.7578 30.4297 50.7578 30.0391C50.7578 29.6172 50.6172 29.2656 50.3359 28.9844C50.0703 28.7031 49.7344 28.5625 49.3281 28.5625H40.5859C40.1641 28.5625 39.8125 28.7031 39.5312 28.9844C39.2656 29.2656 39.1328 29.6172 39.1328 30.0391C39.1328 30.4297 39.2656 30.7656 39.5312 31.0469C39.8125 31.3125 40.1641 31.4453 40.5859 31.4453ZM40.5859 39.8828H49.3281C49.7344 39.8828 50.0703 39.75 50.3359 39.4844C50.6172 39.2031 50.7578 38.8672 50.7578 38.4766C50.7578 38.0547 50.6172 37.7031 50.3359 37.4219C50.0703 37.1406 49.7344 37 49.3281 37H40.5859C40.1641 37 39.8125 37.1406 39.5312 37.4219C39.2656 37.7031 39.1328 38.0547 39.1328 38.4766C39.1328 38.8672 39.2656 39.2031 39.5312 39.4844C39.8125 39.75 40.1641 39.8828 40.5859 39.8828ZM27.3203 40H33.1797C34.0391 40 34.7109 39.7578 35.1953 39.2734C35.6797 38.7891 35.9219 38.1172 35.9219 37.2578V31.3281C35.9219 30.4688 35.6797 29.7969 35.1953 29.3125C34.7109 28.8125 34.0391 28.5625 33.1797 28.5625H27.3203C26.4453 28.5625 25.7656 28.8125 25.2812 29.3125C24.7969 29.7969 24.5547 30.4688 24.5547 31.3281V37.2578C24.5547 38.1172 24.7969 38.7891 25.2812 39.2734C25.7656 39.7578 26.4453 40 27.3203 40Z" fill="white"/>
</svg>
