<svg width="299" height="141" viewBox="0 0 299 141" fill="none" xmlns="http://www.w3.org/2000/svg">
<path d="M79.5463 9.536H61.6903V11.456H68.5063V12.896H75.8983V14.336H75.7063V15.776H78.4903V17.696H68.0263V18.176H66.0103V18.848C66.0103 19.296 65.9143 19.712 65.7223 20.096H72.5383C72.0903 20.992 71.3543 21.44 70.3303 21.44H54.3943V21.536H55.3543V23.456H55.5463V25.376H55.0663V27.296H53.8183V28.736H58.6183V29.696H54.5863V31.136H52.4743V33.056H56.1223V34.016H55.4503V35.936H54.7783V37.856H53.6263V39.776H52.5703V41.216H56.1223V42.656H54.6823V44.576H55.2583V45.056H55.9303V46.016H60.7303V47.456H57.4663V49.376H58.9062V51.296H54.8743V53.216H56.5063V54.176H57.1783V55.616H58.7143V57.536H58.1383V58.976H55.6423V60.416H55.3543V61.376H55.2583V62.816H56.3143V64.256H55.4503V65.408C55.4503 65.728 55.4183 65.984 55.3543 66.176H54.3943C54.2023 66.816 53.8503 67.296 53.3383 67.616H53.5303C53.2103 67.872 52.7623 68 52.1863 68H32.9863C32.4743 68 31.9943 67.872 31.5463 67.616H31.3543C30.9063 67.296 30.5543 66.816 30.2983 66.176H31.1623C31.0983 65.984 31.0663 65.728 31.0663 65.408V64.256H31.9303V62.816H30.8743V61.376H30.9703V60.416H31.2583V58.976H33.7543V57.536H34.3303V55.616H32.7943V54.176H32.1223V53.216H30.4903V51.296H34.5223V49.376H33.0823V47.456H36.3463V46.016H31.5463V45.056H30.8743V44.576H30.2983V42.656H31.7383V41.216H28.1863V39.776H29.2423V37.856H30.3943V35.936H31.0663V34.016H31.7383V33.056H28.0903V31.136H30.2023V29.696H34.2343V28.736H29.4343V27.296H30.6823V25.376H31.1623V23.456H30.9703V21.536H30.0103V21.44H14.0742C13.1143 21.44 12.3463 20.992 11.7703 20.096H4.95425C4.89025 19.904 4.82625 19.712 4.76225 19.52C4.63425 19.328 4.57025 19.104 4.57025 18.848V18.176H6.58625V17.696H17.0503V15.776H14.2663V14.336H14.4583V12.896H7.06625V11.456H0.250249V9.536H18.1063V8.096H8.12225V6.17599H10.0422V4.256H12.5383V3.776H13.9783V3.392C13.9783 2.752 14.1703 2.24 14.5543 1.856H12.4423C12.9543 1.152 13.6583 0.799995 14.5543 0.799995H70.8103C71.7063 0.799995 72.4103 1.152 72.9223 1.856H74.9383C75.2583 2.304 75.4183 2.816 75.4183 3.392V3.776H73.9783V4.256H71.4823V6.17599H69.5623V8.096H79.5463V9.536ZM142.57 62.816L143.242 64.736H141.61L141.802 65.216C141.802 65.28 141.802 65.376 141.802 65.504C141.866 65.568 141.898 65.632 141.898 65.696H141.322V65.888C141.322 66.656 141.034 67.232 140.458 67.616H140.554C140.234 67.872 139.818 68 139.306 68H121.546C121.098 68 120.714 67.968 120.394 67.904C120.138 67.776 119.85 67.68 119.53 67.616C119.018 67.36 118.634 67.072 118.378 66.752C118.122 66.368 117.93 66.016 117.802 65.696H118.281V65.6L118.09 65.216L117.898 64.736H119.53L118.858 62.816H117.034L116.746 61.856H120.682L120.01 59.936H118.858L118.57 59.264H97.9295L97.7375 59.936H96.5855L95.9135 61.856H94.8575L94.4735 62.816H93.8975L93.2255 64.736H93.3215L93.1295 65.216L93.0335 65.6L92.9375 65.696H92.4575C92.3295 66.016 92.1375 66.368 91.8815 66.752C91.6255 67.072 91.2415 67.36 90.7295 67.616H93.6095C93.3535 67.68 93.0655 67.776 92.7455 67.904C92.4255 67.968 92.0415 68 91.5935 68H73.8335C73.3215 68 72.9375 67.872 72.6815 67.616H69.8015C69.1615 67.168 68.8415 66.592 68.8415 65.888V65.696H69.4175C69.4175 65.504 69.4495 65.344 69.5135 65.216L69.6095 64.736H69.5135L70.1855 62.816H70.7615L71.1455 61.856H72.2015L72.8735 59.936H73.9295L74.6015 58.016H70.8575L71.2415 57.056H70.9535L71.4335 55.616H72.3935L72.5855 55.136H70.4735L71.1455 53.216H74.4095L74.6975 52.256H71.7215L71.9135 51.776H72.3935L73.0655 49.856H72.7775L73.2575 48.416H73.6415L74.3135 46.496H75.5615L76.0415 45.056L76.2335 44.576H81.0335L81.2255 44.096H80.9375L81.4175 42.656H76.0415L76.7135 40.736H78.4415L78.6335 40.256H77.5775L77.7695 39.776H80.8415L81.5135 37.856H77.7695L78.1535 36.896H79.5935L80.2655 34.976H79.4015L79.8815 33.536H80.9375L81.6095 31.616H81.3215L81.5135 31.136H79.3055L79.6895 30.176H81.8015L82.2815 28.736H81.3215L81.4175 28.256H83.1455L83.8175 26.336H81.7055L82.1855 24.896H81.1295L81.4175 23.936H74.7935L75.0815 22.976H73.8335L74.5055 21.056H73.2575L73.8335 19.616H77.5775L78.2495 17.696H87.8495L88.3295 16.256H83.7215L84.1055 15.296H87.6575L88.3295 13.376H85.1615L85.6415 11.936H87.6575L88.3295 10.016H88.0415L88.7135 8.096H86.0255L86.1215 7.616H95.3375L96.0095 5.696H95.7215L95.9135 5.216H92.5535L92.9375 3.96799L93.2255 3.296H94.1855L94.7615 2.336H94.4735C94.7935 1.888 95.2415 1.536 95.8175 1.27999C96.3935 0.959995 97.0975 0.799995 97.9295 0.799995H118.762C119.594 0.799995 120.298 0.959995 120.874 1.27999C121.45 1.536 121.898 1.888 122.218 2.336H122.602L123.177 3.296H122.218C122.346 3.552 122.41 3.776 122.41 3.96799L122.89 5.216H126.25L126.346 5.696H126.634L127.306 7.616H118.186L118.378 8.096H121.066L121.738 10.016H122.026L122.698 11.936H120.682L121.162 13.376H124.33L125.002 15.296H121.45L121.833 16.256H126.442L126.922 17.696H117.322L117.994 19.616H114.25L114.73 21.056H115.882L116.554 22.976H112.81L113.194 23.936H128.458L128.746 24.896H127.978L128.458 26.336H126.538L127.21 28.256H124.906L125.002 28.736H128.458L128.938 30.176H129.034L129.418 31.136H126.25L126.442 31.616H129.514L130.186 33.536H131.242L131.722 34.976H131.434L132.106 36.896H133.642L134.026 37.856H131.242L131.914 39.776H133.834L133.93 40.256H133.45L133.642 40.736H131.914L132.49 42.656H137.962L138.442 44.096H138.73L138.922 44.576H134.026L134.218 45.056H134.314L134.794 46.496H133.546L134.218 48.416H133.738L134.314 49.856H134.602L135.274 51.776H134.794L134.986 52.256H137.962L138.346 53.216H134.986L135.658 55.136H137.77L137.962 55.616H137.002L137.578 57.056H137.77L138.154 58.016H141.898L142.57 59.936H143.722L144.394 61.856H140.458L140.746 62.816H142.57ZM102.442 24.896H103.594L103.114 26.336H107.05L106.57 24.896H107.338L107.05 23.936H102.73L102.442 24.896ZM105.61 28.256L105.13 26.624L104.65 28.256H105.61ZM99.8495 39.776L99.6575 40.256H100.714L100.618 40.544H111.466L111.37 40.256H111.85L111.754 39.776H109.834L109.258 37.856H112.042L111.754 36.896H110.122L109.546 34.976H109.834L109.45 33.536H108.394L107.818 31.616H104.746L104.554 31.136H107.722L107.434 30.176H107.338L106.858 28.736H103.786L103.402 30.176H101.29L101.002 31.136H103.114L103.018 31.616H103.306L102.73 33.536H101.674L101.194 34.976H102.058L101.482 36.896H100.042L99.7535 37.856H103.498L102.922 39.776H99.8495ZM216.19 62.816H216.67V63.776H214.174V65.696H207.838C207.838 65.952 207.774 66.208 207.646 66.464C207.518 66.72 207.39 66.944 207.262 67.136H203.998C203.742 67.392 203.55 67.552 203.422 67.616H207.262C206.942 67.872 206.494 68 205.918 68H190.75C190.366 68 190.014 67.968 189.694 67.904C189.374 67.776 189.086 67.68 188.83 67.616H184.894C184.638 67.488 184.382 67.328 184.126 67.136H187.39C187.07 66.88 186.814 66.624 186.622 66.368C186.43 66.112 186.27 65.92 186.142 65.792V65.696H192.382L191.134 63.776H193.63L192.958 62.816H192.478L191.518 61.376H180.478L179.134 59.456H180.574L179.326 57.536H175.966L175.582 57.056H179.998L179.038 55.616H181.054L180.094 54.176H176.158L174.91 52.256H180.958L180.67 51.776H177.502L176.926 50.816H173.95L172.702 48.896H171.07L170.782 48.416H175.198L174.238 46.976H169.246V48.416H164.446V48.896H170.974V50.816H171.934V51.776H172.03V52.256H169.246V54.176H164.734V55.616H170.014V57.056H169.054V57.536H167.902V59.456H170.014V61.376H170.878V62.816H166.942V63.776H170.302V65.696H166.078C166.078 65.952 166.014 66.208 165.886 66.464C165.758 66.72 165.63 66.944 165.502 67.136H168.574C168.318 67.392 168.126 67.552 167.998 67.616H165.022C164.702 67.872 164.254 68 163.678 68H146.302C145.662 68 145.182 67.872 144.862 67.616H147.934C147.806 67.552 147.614 67.392 147.358 67.136H144.19C144.062 66.944 143.934 66.72 143.806 66.464C143.678 66.208 143.614 65.952 143.614 65.696H147.742V63.776H144.382V62.816H148.318V61.376H147.454V59.456H145.342V57.536H146.494V57.056H147.454V55.616H142.174V54.176H146.686V52.256H149.47V51.776H149.374V50.816H148.414V48.896H141.886V48.416H146.686V46.976H151.294V46.496H146.206V46.016H148.126V44.096H146.59V42.176H146.686V41.696H145.918V41.216H146.014V39.776H142.366V39.296H144.862V38.336H139.198V36.416H148.702V35.456H142.654V33.536H146.11V33.056H146.686V31.616H148.414V30.656H149.278V29.216H146.782V28.736H145.822V27.776H144.862V25.856H146.686V24.416H149.278V23.456H155.326V22.976H147.838V22.496H145.342V21.056H144.286V19.616H146.014V17.696H148.51V16.256H150.91V15.296H146.11V14.816H146.686V12.896H148.894V12.416H144.382V11.456H147.166V9.536H143.518V8.096H145.918V7.136H137.374V5.696H135.55V4.736H141.982V3.392C141.982 3.136 142.014 2.944 142.078 2.816H148.51C148.51 2.56 148.638 2.24 148.894 1.856H147.166C147.678 1.152 148.382 0.799995 149.278 0.799995H164.446C165.15 0.799995 165.758 0.895996 166.27 1.088C166.782 1.28 167.198 1.536 167.518 1.856H169.246C169.502 2.112 169.758 2.432 170.014 2.816H163.582C163.582 2.88 163.582 2.912 163.582 2.912C163.646 2.912 163.678 2.944 163.678 3.008L164.734 4.736H158.302L158.878 5.696H160.702L161.566 7.136H170.11L170.686 8.096H168.382L169.246 9.536H172.798L174.046 11.456H171.262L171.838 12.416H176.35L176.638 12.896H174.43L175.582 14.816H175.006L175.294 15.296H180.094L180.67 16.256H178.27L179.23 17.696H176.734L177.886 19.616H176.062L176.926 21.056H177.982L178.942 22.496H181.438L181.726 22.976H183.166V22.496H186.046V21.056H183.262V19.616H183.934V17.696H185.854V16.256H188.158V15.296H183.55V12.896H189.214V12.416H189.118V11.456H183.07V9.536H185.182V8.096H187.966V7.136H182.11V5.696H189.598V4.736H189.022V3.392C189.022 3.136 189.054 2.944 189.118 2.816H185.95C186.014 2.56 186.174 2.24 186.43 1.856H183.166C183.678 1.152 184.382 0.799995 185.278 0.799995H202.654C203.55 0.799995 204.254 1.152 204.766 1.856H208.03C208.158 2.112 208.286 2.432 208.414 2.816H211.582V4.736H212.158V5.696H204.67V7.136H210.526V8.096H207.742V9.536H205.63V11.456H211.678V12.416H211.774V12.896H206.11V15.296H210.718V16.256H208.414V17.696H206.494V19.616H205.822V21.056H208.606V22.496H205.726V22.976H212.446V23.456H208.894V24.416H207.934V25.856H204.766V27.776H201.502V28.736H206.494V29.216H209.758V30.656H208.894V31.616H207.166V33.056H206.59V33.536H203.134V35.456H209.182V36.416H199.678V38.336H205.342V39.296H202.846V39.776H206.494V41.216H206.398V41.696H209.47V42.176H207.358V44.096H207.55V46.016H210.238V46.496H205.63V46.976H208.414V48.416H203.998V48.896H205.534V50.816H208.51V51.776H211.678V52.256H205.534V54.176H209.47V55.616H207.454V57.056H203.134V57.536H206.494V59.456H205.054V61.376H216.19V62.816ZM189.886 22.976H189.214L189.502 23.456H189.886V22.976ZM183.454 23.456L184.03 24.416H181.438L182.302 25.856H185.374V24.416H186.334V23.456H183.454ZM182.206 25.856H180.478L181.63 27.776H182.206V25.856ZM175.774 46.496L175.486 46.016H172.798L171.55 44.096H171.262L170.014 42.176H172.126L171.742 41.696H169.246V42.176H169.15V44.096H170.686V46.016H168.766V46.496H175.774ZM283.893 62.816L285.045 64.736H280.821L280.917 64.832C280.981 64.896 281.013 65.024 281.013 65.216C281.077 65.408 281.141 65.568 281.205 65.696H280.917V65.888C280.917 66.144 280.885 66.368 280.821 66.56C280.757 66.752 280.661 66.944 280.533 67.136H281.781C281.653 67.328 281.493 67.488 281.301 67.616H275.733C275.413 67.872 274.997 68 274.485 68H252.597C252.213 68 251.861 67.968 251.541 67.904C251.221 67.776 250.933 67.68 250.677 67.616H256.245C256.053 67.552 255.765 67.392 255.381 67.136H254.133C253.813 66.88 253.557 66.624 253.365 66.368C253.237 66.112 253.109 65.92 252.981 65.792L252.885 65.696H253.173L252.693 64.736H256.821L255.765 62.816H264.405L264.117 62.336H256.629L256.533 62.144V62.336H241.557V62.816H251.541V64.736H245.397V65.696H236.085C236.085 65.952 236.021 66.208 235.893 66.464C235.765 66.72 235.637 66.944 235.509 67.136H234.645C234.389 67.392 234.197 67.552 234.069 67.616H227.829C227.509 67.872 227.061 68 226.485 68H208.149C207.573 68 207.125 67.872 206.805 67.616H212.949C212.821 67.552 212.629 67.392 212.373 67.136H213.237C213.109 66.944 212.981 66.72 212.853 66.464C212.725 66.208 212.661 65.952 212.661 65.696H221.877V64.736H228.021V62.816H218.037V62.336H233.013V60.896H214.677V59.456H216.405V57.536H217.941V56.576H217.653V54.656H217.461V52.736H216.693V51.296H217.269V50.336H218.325V48.416H221.781V46.976H209.589V46.016H208.725V45.536H219.669V44.576H220.629V44.096H208.149V42.656H209.781V41.696H210.357V39.776H219.765V38.816H222.357V37.376H210.261V35.456H213.525V34.016H217.749V33.536H224.181V32.576H227.541V31.136H228.213V30.656H226.197V29.216H219.765V28.736H215.253V26.816H233.205V25.856H211.125V24.896H227.733V23.456H211.701V22.496H217.941V21.536H223.893V19.616H221.973V18.176H222.549V16.736H219.765V16.256H217.749V14.816H217.173V14.336H218.421V13.376H219.669V11.456H209.109V10.976H209.685V10.496H213.621V10.016H212.277V9.536H219.669V9.056H217.845V8.576H217.749V6.65599H218.229V5.696H224.853V4.736H225.717V3.776H226.101V3.296H215.829C215.893 2.592 216.213 1.952 216.789 1.376H217.845C218.229 0.991997 218.773 0.799995 219.477 0.799995H237.813C238.453 0.799995 238.997 0.991997 239.445 1.376H238.389C239.029 1.888 239.349 2.528 239.349 3.296H249.621V3.776H249.237V4.736H248.373V5.696H241.749V6.65599H241.269V8.576H241.365V9.056H243.189V9.536H235.797V10.016H237.141V10.496H233.205V10.976H232.629V11.456H241.653L241.941 10.976H245.013L245.205 10.496H250.773L251.061 10.016H245.493L245.781 9.536H247.413L247.701 9.056H248.181L248.469 8.576H249.333L249.525 8.096H250.581L251.349 6.65599H250.869L251.445 5.696H256.917L257.397 4.736H252.981L253.461 3.776H258.261L258.453 3.296H251.925L252.117 2.912C252.437 2.272 252.917 1.76 253.557 1.376H252.789C253.365 0.991997 254.133 0.799995 255.093 0.799995H276.309C276.885 0.799995 277.365 0.991997 277.749 1.376H278.613C279.061 1.824 279.285 2.336 279.285 2.912C279.285 3.104 279.253 3.232 279.189 3.296H285.813C285.813 3.36 285.781 3.424 285.717 3.488C285.717 3.552 285.717 3.648 285.717 3.776H281.013L280.821 3.96799L280.437 4.736H284.853L284.277 5.696H278.805L278.229 6.65599H278.709L277.845 8.096H276.885L276.597 8.576H275.733L275.445 9.056H274.965L274.677 9.536H272.949L272.661 10.016H278.325L278.037 10.496H272.469L272.181 10.976H269.109L268.821 11.456H269.397L268.341 13.376H272.181L271.605 14.336H272.469L272.181 14.816H272.277L271.413 16.256H272.757L272.469 16.736H272.565L271.701 18.176H269.781L268.917 19.616H270.933L269.781 21.536H268.725L268.149 22.496H261.909L261.333 23.456H277.365L276.501 24.896H259.893L259.317 25.856H281.397L280.821 26.816H262.869L261.717 28.736H266.229L265.941 29.216H272.373L271.509 30.656H273.525L273.237 31.136H272.565L271.701 32.576H268.341L268.149 32.96L268.533 33.536H262.101L262.389 34.016H258.165L259.029 35.456H255.669L256.821 37.376H268.917L269.781 38.816H267.189L267.765 39.776H258.357L259.509 41.696H258.933L259.509 42.656H257.877L258.741 44.096H271.221L271.509 44.576H270.453L271.029 45.536H268.341L268.629 46.016H267.669L268.245 46.976H261.141L262.005 48.416H270.261L271.413 50.336H271.221L271.797 51.296H272.565L273.429 52.736H275.157L276.309 54.656H274.581L275.733 56.576H275.829L276.309 57.536H276.501L277.653 59.456H278.229L279.093 60.896H283.893L284.757 62.336H292.245L292.533 62.816H283.893ZM241.269 16.256H243.285V16.736H245.493L245.781 16.256H244.437L245.205 14.816H245.109L245.397 14.336H244.533L245.013 13.376H241.941V14.336H240.693V14.816H241.269V16.256ZM241.941 21.536H241.461V22.4L241.941 21.536ZM243.189 45.536H243.477L243.189 44.864V45.536ZM232.245 46.016H233.109V46.976H240.693L240.117 46.016H241.077L240.789 45.536H232.245V46.016ZM238.197 60.896H251.061L250.293 59.456H249.621L248.565 57.536H248.373L247.893 56.576H247.797L246.741 54.656H248.469L247.413 52.736H245.685L244.821 51.296H244.053L243.573 50.336H243.765L242.613 48.416H241.845V50.336H240.789V51.296H240.213V52.736H240.981V54.656H241.173V56.576H241.461V57.536H239.925V59.456H238.197V60.896Z" fill="white"/>
<path d="M75.1224 131.496H66.7704L65.8104 132.936H73.6824L72.8184 133.896H66.2904L65.8104 134.376H66.6744C65.9064 135.144 65.1384 135.784 64.3704 136.296H65.9064C65.4584 136.616 64.9464 136.936 64.3704 137.256H63.8904L63.0264 137.736H63.2184C63.0904 137.8 62.9304 137.864 62.7384 137.928C62.5464 137.992 62.3864 138.088 62.2584 138.216H61.9704C61.3304 138.472 60.6584 138.728 59.9544 138.984C59.2504 139.24 58.5144 139.464 57.7464 139.656H57.9384C57.1064 139.848 56.2744 140.04 55.4424 140.232C54.6104 140.36 53.7464 140.488 52.8504 140.616H53.1384C52.1144 140.744 51.0264 140.84 49.8744 140.904C48.7864 140.968 47.6344 141 46.4184 141H13.5864C13.0104 141 12.5624 140.872 12.2424 140.616H11.8584C11.5384 140.424 11.2504 140.104 10.9944 139.656H10.8024C10.6104 139.272 10.5144 138.856 10.5144 138.408V138.216H10.8024V137.736H10.6104V137.256H11.0904V136.296H9.55438V134.376H8.69038V133.896H15.2184V132.936H7.25038V131.496H15.6024V129.576H8.69038V129.096H8.59438V128.136H13.6824V127.176H10.1304V126.216H13.2984V124.776H10.5144V123.336H12.2424V122.856H10.8024V119.976H10.1304V119.016H10.6104V117.576H10.0344V116.136H8.40237V115.176H6.38638V114.216H11.4744V113.736H4.65837V113.256H11.0904V112.776H9.36238V112.296H10.4184V111.336H9.74638V109.896H9.84238V108.456H10.2264V107.976H10.5144V107.016H12.8184V105.096H14.3544V103.656H10.8024V101.736H10.1304V100.776H8.97838V99.336H10.5144V97.416H8.01838V96.936H10.7064V96.456H13.9704V95.496H15.4104V95.016H8.11438V93.576H10.8024V92.136H10.4184V91.176H10.5144V90.216H10.2264V88.776H10.0344V88.296H11.6664V87.816H8.59438V86.376H9.65038V85.896H10.0344V83.496H10.5144V83.016H5.13837V82.536H7.53838V81.096H12.9144V79.656H4.85037V79.176H7.44238V78.216H8.11438V76.296H7.92238C7.92238 75.784 8.08238 75.304 8.40237 74.856H11.8584C12.3704 74.152 13.0424 73.8 13.8744 73.8H45.7464C47.8584 73.8 49.8104 73.896 51.6024 74.088C53.4584 74.28 55.1864 74.536 56.7864 74.856H53.4264C54.2584 75.048 55.0584 75.272 55.8264 75.528C56.6584 75.72 57.3944 75.976 58.0344 76.296H58.2264C58.9304 76.552 59.5704 76.84 60.1464 77.16C60.7224 77.48 61.2984 77.832 61.8744 78.216H61.2024C61.4584 78.344 61.6824 78.504 61.8744 78.696C62.1304 78.888 62.3544 79.048 62.5464 79.176H59.9544L60.5304 79.656H68.5944C68.8504 79.912 69.0744 80.168 69.2664 80.424C69.5224 80.616 69.7464 80.84 69.9384 81.096H64.5624C64.7544 81.352 64.9464 81.608 65.1384 81.864C65.3304 82.056 65.4904 82.28 65.6184 82.536H63.2184L63.5064 83.016H68.8824L69.1704 83.496H68.6904C68.8824 83.816 69.0424 84.136 69.1704 84.456C69.2984 84.712 69.4264 84.968 69.5544 85.224C69.6824 85.416 69.7784 85.64 69.8424 85.896H69.3624L69.5544 86.376H68.4984C68.6264 86.632 68.7224 86.888 68.7864 87.144C68.8504 87.336 68.9144 87.56 68.9784 87.816H72.0504C72.0504 87.88 72.0504 87.944 72.0504 88.008C72.1144 88.072 72.1464 88.168 72.1464 88.296H70.5144C70.5784 88.424 70.6104 88.584 70.6104 88.776H70.8024L71.0904 90.216H71.3784C71.3784 90.344 71.3784 90.504 71.3784 90.696C71.3784 90.888 71.4104 91.048 71.4744 91.176C71.4744 91.304 71.4744 91.464 71.4744 91.656C71.4744 91.848 71.5064 92.008 71.5704 92.136H71.4744C71.5384 92.392 71.5704 92.648 71.5704 92.904C71.5704 93.096 71.5704 93.32 71.5704 93.576H70.7064V93.96C70.7064 94.152 70.6744 94.344 70.6104 94.536C70.6104 94.664 70.6104 94.824 70.6104 95.016H72.3384C72.3384 95.08 72.3064 95.144 72.2424 95.208C72.2424 95.272 72.2424 95.368 72.2424 95.496H71.1864L71.0904 96.456H72.5304C72.5304 96.648 72.4984 96.808 72.4344 96.936H71.1864C71.1224 97.064 71.0904 97.224 71.0904 97.416C70.8984 97.992 70.6424 98.632 70.3224 99.336H68.7864L68.0184 100.776H69.1704C69.0424 100.904 68.9144 101.064 68.7864 101.256C68.7224 101.448 68.6264 101.608 68.4984 101.736H69.0744C68.5624 102.504 67.9864 103.144 67.3464 103.656H70.9944C70.3544 104.296 69.7464 104.776 69.1704 105.096H67.6344C67.1864 105.48 66.7064 105.768 66.1944 105.96C66.5144 106.088 66.8344 106.248 67.1544 106.44C67.5384 106.632 67.8904 106.824 68.2104 107.016H65.9064C66.2904 107.272 66.7384 107.592 67.2504 107.976H66.9624L67.5384 108.456H67.1544L68.5944 109.896H68.4984C68.6904 110.152 68.8824 110.408 69.0744 110.664C69.2664 110.856 69.4264 111.08 69.5544 111.336H70.2264L70.8024 112.296H69.7464L70.0344 112.776H71.7624C71.7624 112.84 71.8264 113 71.9544 113.256H65.5224L65.8104 113.736H72.6264C72.6264 113.8 72.6904 113.96 72.8184 114.216H67.7304C67.8584 114.344 67.9224 114.504 67.9224 114.696C67.9864 114.888 68.0504 115.048 68.1144 115.176H71.6664L71.9544 116.136H72.4344L72.7224 117.576H72.6264C72.6904 117.832 72.7224 118.088 72.7224 118.344C72.7864 118.536 72.8184 118.76 72.8184 119.016H72.7224V119.976H72.6264V120.936H73.0104C73.0104 121.256 72.9784 121.576 72.9144 121.896C72.9144 122.216 72.8824 122.536 72.8184 122.856H75.6024C75.6024 122.92 75.5704 122.984 75.5064 123.048C75.5064 123.112 75.5064 123.208 75.5064 123.336H72.8184C72.7544 123.592 72.7224 123.848 72.7224 124.104C72.7224 124.296 72.6904 124.52 72.6264 124.776H75.3144L75.0264 126.216H71.8584L71.5704 127.176H75.2184L74.8344 128.136H69.7464C69.6824 128.264 69.6184 128.424 69.5544 128.616C69.5544 128.808 69.4904 128.968 69.3624 129.096H69.4584C69.4584 129.16 69.3944 129.32 69.2664 129.576H76.1784C75.9224 130.216 75.5704 130.856 75.1224 131.496ZM32.0184 96.936V97.416H34.5144V99.048H42.5784C44.0504 99.048 45.1064 98.504 45.7464 97.416L46.0344 96.936H47.2824L47.4744 96.456H45.9384L46.2264 95.496H47.2824V95.016H45.5544C45.6184 94.952 45.6504 94.856 45.6504 94.728C45.6504 94.536 45.6184 94.344 45.5544 94.152C45.5544 93.96 45.5224 93.768 45.4584 93.576H46.4184C46.3544 93.064 46.1624 92.584 45.8424 92.136C45.7784 91.944 45.6504 91.784 45.4584 91.656C45.3304 91.464 45.2024 91.304 45.0744 91.176C44.7544 90.92 44.3704 90.728 43.9224 90.6C43.5384 90.408 43.0904 90.312 42.5784 90.312H34.5144V91.176H34.4184V92.136H34.8024V93.576H32.1144V95.016H39.4104V95.496H37.9704V96.456H34.7064V96.936H32.0184ZM34.8024 122.856H36.2424V123.336H34.5144V124.488H43.4424C44.1464 124.488 44.7224 124.392 45.1704 124.2C45.6824 123.944 46.1304 123.656 46.5144 123.336H49.2024C49.2664 123.208 49.3304 123.112 49.3944 123.048C49.4584 122.984 49.5224 122.92 49.5864 122.856H46.8984C47.2824 122.28 47.5704 121.64 47.7624 120.936H47.3784C47.4424 120.808 47.4744 120.648 47.4744 120.456C47.4744 120.264 47.4744 120.104 47.4744 119.976H47.5704V119.016H47.6664C47.6024 118.76 47.5384 118.536 47.4744 118.344C47.4104 118.088 47.3144 117.832 47.1864 117.576H47.2824C46.9624 116.936 46.6104 116.456 46.2264 116.136H45.7464C45.2984 115.688 44.6584 115.368 43.8264 115.176H40.2744C40.0824 115.112 39.7624 115.08 39.3144 115.08H30.3864V115.176H32.4024V116.136H34.0344V117.576H34.6104V119.016H34.1304V119.976H34.8024V122.856ZM148.241 135.816L148.913 137.736H147.281L147.473 138.216C147.473 138.28 147.473 138.376 147.473 138.504C147.537 138.568 147.569 138.632 147.569 138.696H146.993V138.888C146.993 139.656 146.705 140.232 146.129 140.616H146.225C145.905 140.872 145.489 141 144.977 141H127.217C126.769 141 126.385 140.968 126.065 140.904C125.809 140.776 125.521 140.68 125.201 140.616C124.689 140.36 124.305 140.072 124.049 139.752C123.793 139.368 123.601 139.016 123.473 138.696H123.953V138.6L123.761 138.216L123.569 137.736H125.201L124.529 135.816H122.705L122.417 134.856H126.353L125.681 132.936H124.529L124.241 132.264H103.601L103.409 132.936H102.257L101.585 134.856H100.529L100.145 135.816H99.5694L98.8974 137.736H98.9934L98.8014 138.216L98.7054 138.6L98.6094 138.696H98.1294C98.0014 139.016 97.8094 139.368 97.5534 139.752C97.2974 140.072 96.9134 140.36 96.4014 140.616H99.2814C99.0254 140.68 98.7374 140.776 98.4174 140.904C98.0974 140.968 97.7134 141 97.2654 141H79.5054C78.9934 141 78.6094 140.872 78.3534 140.616H75.4734C74.8334 140.168 74.5134 139.592 74.5134 138.888V138.696H75.0894C75.0894 138.504 75.1214 138.344 75.1854 138.216L75.2814 137.736H75.1854L75.8574 135.816H76.4334L76.8174 134.856H77.8734L78.5454 132.936H79.6014L80.2734 131.016H76.5294L76.9134 130.056H76.6254L77.1054 128.616H78.0654L78.2574 128.136H76.1454L76.8174 126.216H80.0814L80.3694 125.256H77.3934L77.5854 124.776H78.0654L78.7374 122.856H78.4494L78.9294 121.416H79.3134L79.9854 119.496H81.2334L81.7134 118.056L81.9054 117.576H86.7054L86.8974 117.096H86.6094L87.0894 115.656H81.7134L82.3854 113.736H84.1134L84.3054 113.256H83.2494L83.4414 112.776H86.5134L87.1854 110.856H83.4414L83.8254 109.896H85.2654L85.9374 107.976H85.0734L85.5534 106.536H86.6094L87.2814 104.616H86.9934L87.1854 104.136H84.9774L85.3614 103.176H87.4734L87.9534 101.736H86.9934L87.0894 101.256H88.8174L89.4894 99.336H87.3774L87.8574 97.896H86.8014L87.0894 96.936H80.4654L80.7534 95.976H79.5054L80.1774 94.056H78.9294L79.5054 92.616H83.2494L83.9214 90.696H93.5214L94.0014 89.256H89.3934L89.7774 88.296H93.3294L94.0014 86.376H90.8334L91.3134 84.936H93.3294L94.0014 83.016H93.7134L94.3854 81.096H91.6974L91.7934 80.616H101.009L101.681 78.696H101.393L101.585 78.216H98.2254L98.6094 76.968L98.8974 76.296H99.8574L100.433 75.336H100.145C100.465 74.888 100.913 74.536 101.489 74.28C102.065 73.96 102.769 73.8 103.601 73.8H124.433C125.265 73.8 125.969 73.96 126.545 74.28C127.121 74.536 127.569 74.888 127.889 75.336H128.273L128.849 76.296H127.889C128.017 76.552 128.081 76.776 128.081 76.968L128.561 78.216H131.921L132.017 78.696H132.305L132.977 80.616H123.857L124.049 81.096H126.737L127.409 83.016H127.697L128.369 84.936H126.353L126.833 86.376H130.001L130.673 88.296H127.121L127.505 89.256H132.113L132.593 90.696H122.993L123.665 92.616H119.921L120.401 94.056H121.553L122.225 95.976H118.481L118.865 96.936H134.129L134.417 97.896H133.649L134.129 99.336H132.209L132.881 101.256H130.577L130.673 101.736H134.129L134.609 103.176H134.705L135.089 104.136H131.921L132.113 104.616H135.185L135.857 106.536H136.913L137.393 107.976H137.105L137.777 109.896H139.313L139.697 110.856H136.913L137.585 112.776H139.505L139.601 113.256H139.121L139.313 113.736H137.585L138.161 115.656H143.633L144.113 117.096H144.401L144.593 117.576H139.697L139.889 118.056H139.985L140.465 119.496H139.217L139.889 121.416H139.409L139.985 122.856H140.273L140.945 124.776H140.465L140.657 125.256H143.633L144.017 126.216H140.657L141.329 128.136H143.441L143.633 128.616H142.673L143.249 130.056H143.441L143.825 131.016H147.569L148.241 132.936H149.393L150.065 134.856H146.129L146.417 135.816H148.241ZM108.113 97.896H109.265L108.785 99.336H112.721L112.241 97.896H113.009L112.721 96.936H108.401L108.113 97.896ZM111.281 101.256L110.801 99.624L110.321 101.256H111.281ZM105.521 112.776L105.329 113.256H106.385L106.289 113.544H117.137L117.041 113.256H117.521L117.425 112.776H115.505L114.929 110.856H117.713L117.425 109.896H115.793L115.217 107.976H115.505L115.121 106.536H114.065L113.489 104.616H110.417L110.225 104.136H113.393L113.105 103.176H113.009L112.529 101.736H109.457L109.073 103.176H106.961L106.673 104.136H108.785L108.689 104.616H108.977L108.401 106.536H107.345L106.865 107.976H107.729L107.153 109.896H105.713L105.425 110.856H109.169L108.593 112.776H105.521ZM221.862 135.816H222.342V136.776H219.846V138.696H213.51C213.51 138.952 213.446 139.208 213.318 139.464C213.19 139.72 213.062 139.944 212.934 140.136H209.67C209.414 140.392 209.222 140.552 209.094 140.616H212.934C212.614 140.872 212.166 141 211.59 141H196.422C196.038 141 195.686 140.968 195.366 140.904C195.046 140.776 194.758 140.68 194.502 140.616H190.566C190.31 140.488 190.054 140.328 189.798 140.136H193.062C192.742 139.88 192.486 139.624 192.294 139.368C192.102 139.112 191.942 138.92 191.814 138.792V138.696H198.054L196.806 136.776H199.302L198.63 135.816H198.15L197.19 134.376H186.15L184.806 132.456H186.246L184.998 130.536H181.638L181.254 130.056H185.67L184.71 128.616H186.726L185.766 127.176H181.83L180.582 125.256H186.63L186.342 124.776H183.174L182.598 123.816H179.622L178.374 121.896H176.742L176.454 121.416H180.87L179.91 119.976H174.918V121.416H170.118V121.896H176.646V123.816H177.606V124.776H177.702V125.256H174.918V127.176H170.406V128.616H175.686V130.056H174.726V130.536H173.574V132.456H175.686V134.376H176.55V135.816H172.614V136.776H175.974V138.696H171.75C171.75 138.952 171.686 139.208 171.558 139.464C171.43 139.72 171.302 139.944 171.174 140.136H174.246C173.99 140.392 173.798 140.552 173.67 140.616H170.694C170.374 140.872 169.926 141 169.35 141H151.974C151.334 141 150.854 140.872 150.534 140.616H153.606C153.478 140.552 153.286 140.392 153.03 140.136H149.862C149.734 139.944 149.606 139.72 149.478 139.464C149.35 139.208 149.286 138.952 149.286 138.696H153.414V136.776H150.054V135.816H153.99V134.376H153.126V132.456H151.014V130.536H152.166V130.056H153.126V128.616H147.846V127.176H152.358V125.256H155.142V124.776H155.046V123.816H154.086V121.896H147.558V121.416H152.358V119.976H156.966V119.496H151.878V119.016H153.798V117.096H152.262V115.176H152.358V114.696H151.59V114.216H151.686V112.776H148.038V112.296H150.534V111.336H144.87V109.416H154.374V108.456H148.326V106.536H151.782V106.056H152.358V104.616H154.086V103.656H154.95V102.216H152.454V101.736H151.494V100.776H150.534V98.856H152.358V97.416H154.95V96.456H160.998V95.976H153.51V95.496H151.014V94.056H149.958V92.616H151.686V90.696H154.182V89.256H156.582V88.296H151.782V87.816H152.358V85.896H154.566V85.416H150.054V84.456H152.838V82.536H149.19V81.096H151.59V80.136H143.046V78.696H141.222V77.736H147.654V76.392C147.654 76.136 147.686 75.944 147.75 75.816H154.182C154.182 75.56 154.31 75.24 154.566 74.856H152.838C153.35 74.152 154.054 73.8 154.95 73.8H170.118C170.822 73.8 171.43 73.896 171.942 74.088C172.454 74.28 172.87 74.536 173.19 74.856H174.918C175.174 75.112 175.43 75.432 175.686 75.816H169.254C169.254 75.88 169.254 75.912 169.254 75.912C169.318 75.912 169.35 75.944 169.35 76.008L170.406 77.736H163.974L164.55 78.696H166.374L167.238 80.136H175.782L176.358 81.096H174.054L174.918 82.536H178.47L179.718 84.456H176.934L177.51 85.416H182.022L182.31 85.896H180.102L181.254 87.816H180.678L180.966 88.296H185.766L186.342 89.256H183.942L184.902 90.696H182.406L183.558 92.616H181.734L182.598 94.056H183.654L184.614 95.496H187.11L187.398 95.976H188.838V95.496H191.718V94.056H188.934V92.616H189.606V90.696H191.526V89.256H193.83V88.296H189.222V85.896H194.886V85.416H194.79V84.456H188.742V82.536H190.854V81.096H193.638V80.136H187.782V78.696H195.27V77.736H194.694V76.392C194.694 76.136 194.726 75.944 194.79 75.816H191.622C191.686 75.56 191.846 75.24 192.102 74.856H188.838C189.35 74.152 190.054 73.8 190.95 73.8H208.326C209.222 73.8 209.926 74.152 210.438 74.856H213.702C213.83 75.112 213.958 75.432 214.086 75.816H217.254V77.736H217.83V78.696H210.342V80.136H216.198V81.096H213.414V82.536H211.302V84.456H217.35V85.416H217.446V85.896H211.782V88.296H216.39V89.256H214.086V90.696H212.166V92.616H211.494V94.056H214.278V95.496H211.398V95.976H218.118V96.456H214.566V97.416H213.606V98.856H210.438V100.776H207.174V101.736H212.166V102.216H215.43V103.656H214.566V104.616H212.838V106.056H212.262V106.536H208.806V108.456H214.854V109.416H205.35V111.336H211.014V112.296H208.518V112.776H212.166V114.216H212.07V114.696H215.142V115.176H213.03V117.096H213.222V119.016H215.91V119.496H211.302V119.976H214.086V121.416H209.67V121.896H211.206V123.816H214.182V124.776H217.35V125.256H211.206V127.176H215.142V128.616H213.126V130.056H208.806V130.536H212.166V132.456H210.726V134.376H221.862V135.816ZM195.558 95.976H194.886L195.174 96.456H195.558V95.976ZM189.126 96.456L189.702 97.416H187.11L187.974 98.856H191.046V97.416H192.006V96.456H189.126ZM187.878 98.856H186.15L187.302 100.776H187.878V98.856ZM181.446 119.496L181.158 119.016H178.47L177.222 117.096H176.934L175.686 115.176H177.798L177.414 114.696H174.918V115.176H174.822V117.096H176.358V119.016H174.438V119.496H181.446ZM289.565 135.816L290.717 137.736H286.493L286.589 137.832C286.653 137.896 286.685 138.024 286.685 138.216C286.749 138.408 286.813 138.568 286.877 138.696H286.589V138.888C286.589 139.144 286.557 139.368 286.493 139.56C286.429 139.752 286.333 139.944 286.205 140.136H287.453C287.325 140.328 287.165 140.488 286.973 140.616H281.405C281.085 140.872 280.669 141 280.157 141H258.269C257.885 141 257.533 140.968 257.213 140.904C256.893 140.776 256.605 140.68 256.349 140.616H261.917C261.725 140.552 261.437 140.392 261.053 140.136H259.805C259.485 139.88 259.229 139.624 259.037 139.368C258.909 139.112 258.781 138.92 258.653 138.792L258.557 138.696H258.845L258.365 137.736H262.493L261.437 135.816H270.077L269.789 135.336H262.301L262.205 135.144V135.336H247.229V135.816H257.213V137.736H251.069V138.696H241.757C241.757 138.952 241.693 139.208 241.565 139.464C241.437 139.72 241.309 139.944 241.181 140.136H240.317C240.061 140.392 239.869 140.552 239.741 140.616H233.501C233.181 140.872 232.733 141 232.157 141H213.821C213.245 141 212.797 140.872 212.477 140.616H218.621C218.493 140.552 218.301 140.392 218.045 140.136H218.909C218.781 139.944 218.653 139.72 218.525 139.464C218.397 139.208 218.333 138.952 218.333 138.696H227.549V137.736H233.693V135.816H223.709V135.336H238.685V133.896H220.349V132.456H222.077V130.536H223.613V129.576H223.325V127.656H223.133V125.736H222.365V124.296H222.941V123.336H223.997V121.416H227.453V119.976H215.261V119.016H214.397V118.536H225.341V117.576H226.301V117.096H213.821V115.656H215.453V114.696H216.029V112.776H225.437V111.816H228.029V110.376H215.933V108.456H219.197V107.016H223.421V106.536H229.853V105.576H233.213V104.136H233.885V103.656H231.869V102.216H225.437V101.736H220.925V99.816H238.877V98.856H216.797V97.896H233.405V96.456H217.373V95.496H223.613V94.536H229.565V92.616H227.645V91.176H228.221V89.736H225.437V89.256H223.421V87.816H222.845V87.336H224.093V86.376H225.341V84.456H214.781V83.976H215.357V83.496H219.293V83.016H217.949V82.536H225.341V82.056H223.517V81.576H223.421V79.656H223.901V78.696H230.525V77.736H231.389V76.776H231.773V76.296H221.501C221.565 75.592 221.885 74.952 222.461 74.376H223.517C223.901 73.992 224.445 73.8 225.149 73.8H243.485C244.125 73.8 244.669 73.992 245.117 74.376H244.061C244.701 74.888 245.021 75.528 245.021 76.296H255.293V76.776H254.909V77.736H254.045V78.696H247.421V79.656H246.941V81.576H247.037V82.056H248.861V82.536H241.469V83.016H242.813V83.496H238.877V83.976H238.301V84.456H247.325L247.613 83.976H250.685L250.877 83.496H256.445L256.733 83.016H251.165L251.453 82.536H253.085L253.373 82.056H253.853L254.141 81.576H255.005L255.197 81.096H256.253L257.021 79.656H256.541L257.117 78.696H262.589L263.069 77.736H258.653L259.133 76.776H263.933L264.125 76.296H257.597L257.789 75.912C258.109 75.272 258.589 74.76 259.229 74.376H258.461C259.037 73.992 259.805 73.8 260.765 73.8H281.981C282.557 73.8 283.037 73.992 283.421 74.376H284.285C284.733 74.824 284.957 75.336 284.957 75.912C284.957 76.104 284.925 76.232 284.861 76.296H291.485C291.485 76.36 291.453 76.424 291.389 76.488C291.389 76.552 291.389 76.648 291.389 76.776H286.685L286.493 76.968L286.109 77.736H290.525L289.949 78.696H284.477L283.901 79.656H284.381L283.517 81.096H282.557L282.269 81.576H281.405L281.117 82.056H280.637L280.349 82.536H278.621L278.333 83.016H283.997L283.709 83.496H278.141L277.853 83.976H274.781L274.493 84.456H275.069L274.013 86.376H277.853L277.277 87.336H278.141L277.853 87.816H277.949L277.085 89.256H278.429L278.141 89.736H278.237L277.373 91.176H275.453L274.589 92.616H276.605L275.453 94.536H274.397L273.821 95.496H267.581L267.005 96.456H283.037L282.173 97.896H265.565L264.989 98.856H287.069L286.493 99.816H268.541L267.389 101.736H271.901L271.613 102.216H278.045L277.181 103.656H279.197L278.909 104.136H278.237L277.373 105.576H274.013L273.821 105.96L274.205 106.536H267.773L268.061 107.016H263.837L264.701 108.456H261.341L262.493 110.376H274.589L275.453 111.816H272.861L273.437 112.776H264.029L265.181 114.696H264.605L265.181 115.656H263.549L264.413 117.096H276.893L277.181 117.576H276.125L276.701 118.536H274.013L274.301 119.016H273.341L273.917 119.976H266.813L267.677 121.416H275.933L277.085 123.336H276.893L277.469 124.296H278.237L279.101 125.736H280.829L281.981 127.656H280.253L281.405 129.576H281.501L281.981 130.536H282.173L283.325 132.456H283.901L284.765 133.896H289.565L290.429 135.336H297.917L298.205 135.816H289.565ZM246.941 89.256H248.957V89.736H251.165L251.453 89.256H250.109L250.877 87.816H250.781L251.069 87.336H250.205L250.685 86.376H247.613V87.336H246.365V87.816H246.941V89.256ZM247.613 94.536H247.133V95.4L247.613 94.536ZM248.861 118.536H249.149L248.861 117.864V118.536ZM237.917 119.016H238.781V119.976H246.365L245.789 119.016H246.749L246.461 118.536H237.917V119.016ZM243.869 133.896H256.733L255.965 132.456H255.293L254.237 130.536H254.045L253.565 129.576H253.469L252.413 127.656H254.141L253.085 125.736H251.357L250.493 124.296H249.725L249.245 123.336H249.437L248.285 121.416H247.517V123.336H246.461V124.296H245.885V125.736H246.653V127.656H246.845V129.576H247.133V130.536H245.597V132.456H243.869V133.896Z" fill="#C7FF28"/>
</svg>
